<?xml version="1.0" encoding="UTF-8"?>
<!DOCTYPE svg PUBLIC "-//W3C//DTD SVG 1.1//EN" "http://www.w3.org/Graphics/SVG/1.1/DTD/svg11.dtd">
<svg xmlns="http://www.w3.org/2000/svg" version="1.1" width="80px" height="80px" style="shape-rendering:geometricPrecision; text-rendering:geometricPrecision; image-rendering:optimizeQuality; fill-rule:evenodd; clip-rule:evenodd" xmlns:xlink="http://www.w3.org/1999/xlink">
<g><path style="opacity:0.869" fill="#4989c8" d="M 31.5,1.5 C 58.645,-0.188799 71.145,12.4779 69,39.5C 67.6939,43.4456 65.8606,47.1122 63.5,50.5C 67.9848,55.4852 72.6515,60.3186 77.5,65C 73.5138,65.4988 69.5138,65.6655 65.5,65.5C 65.6655,69.5138 65.4988,73.5138 65,77.5C 59.3333,71.8333 53.6667,66.1667 48,60.5C 42.3333,61.8333 36.6667,61.8333 31,60.5C 25.3333,66.1667 19.6667,71.8333 14,77.5C 13.5012,73.5138 13.3345,69.5138 13.5,65.5C 9.48617,65.6655 5.48617,65.4988 1.5,65C 6.34854,60.3186 11.0152,55.4852 15.5,50.5C 7.37999,37.4096 7.54666,24.4096 16,11.5C 20.5,7.00807 25.6666,3.67473 31.5,1.5 Z"/></g>
<g><path style="opacity:1" fill="#b3dafc" d="M 33.5,3.5 C 56.6527,3.15203 67.8194,14.4854 67,37.5C 61.6077,53.6152 50.441,60.7819 33.5,59C 17.3848,53.6077 10.2181,42.441 12,25.5C 15.3501,14.3177 22.5167,6.98437 33.5,3.5 Z"/></g>
<g><path style="opacity:1" fill="#ddeffd" d="M 33.5,9.5 C 52.8432,8.34415 62.0099,17.3441 61,36.5C 56.4666,49.5234 47.3,55.0234 33.5,53C 15.7357,43.8632 12.7357,31.1965 24.5,15C 27.5638,13.1412 30.5638,11.3079 33.5,9.5 Z"/></g>
<g><path style="opacity:1" fill="#4888c7" d="M 39.5,21.5 C 41.4633,28.4238 42.1299,35.7572 41.5,43.5C 40.5,43.5 39.5,43.5 38.5,43.5C 38.8293,37.4632 38.4959,31.4632 37.5,25.5C 36.2519,26.0402 35.0852,26.7069 34,27.5C 33.8333,27 33.6667,26.5 33.5,26C 35.3584,24.2453 37.3584,22.7453 39.5,21.5 Z"/></g>
<g><path style="opacity:1" fill="#93c8fa" d="M 16.5,52.5 C 20.598,54.7488 24.598,57.2488 28.5,60C 24.3333,64.1667 20.1667,68.3333 16,72.5C 15.502,69.5184 15.3354,66.5184 15.5,63.5C 12.4816,63.6646 9.48162,63.498 6.5,63C 10.0374,59.6309 13.3707,56.1309 16.5,52.5 Z"/></g>
<g><path style="opacity:1" fill="#93c8fa" d="M 60.5,52.5 C 64.9046,55.3958 68.9046,58.8958 72.5,63C 69.5184,63.498 66.5184,63.6646 63.5,63.5C 63.6646,66.5184 63.498,69.5184 63,72.5C 58.8333,68.3333 54.6667,64.1667 50.5,60C 54.3003,58.0211 57.6336,55.5211 60.5,52.5 Z"/></g>
</svg>
