<svg xmlns="http://www.w3.org/2000/svg" version="1.1" xmlns:xlink="http://www.w3.org/1999/xlink" xmlns:svgjs="http://svgjs.com/svgjs" width="1440" height="3000" preserveAspectRatio="none" viewBox="0 0 1440 3000"><g mask="url(&quot;#SvgjsMask1023&quot;)" fill="none"><rect width="1440" height="3000" x="0" y="0" fill="rgba(16, 155, 254, 1)"></rect><path d="M0,1475.753C268.582,1432.068,413.181,1146.223,641.03,997.462C866.582,850.201,1187.869,836.208,1330.016,607.398C1475.13,373.813,1472.254,61.524,1384.35,-199.039C1302.072,-442.924,1044.112,-564.265,870.601,-754.38C702.804,-938.234,618.575,-1223.339,381.185,-1298.199C143.416,-1373.179,-91.838,-1197.335,-332.948,-1133.917C-582.584,-1068.257,-875.031,-1098.447,-1060.565,-918.985C-1249.383,-736.347,-1335.084,-449.95,-1310.445,-188.413C-1287.436,55.826,-1018.201,196.109,-933.813,426.458C-838.252,687.303,-975.367,1022.812,-790.686,1230.332C-603.43,1440.745,-278.017,1520.973,0,1475.753" fill="#0186e5"></path><path d="M1440 4471.638C1717.467 4476.023999999999 1974.3220000000001 4344.684 2206.416 4192.567 2436.911 4041.498 2704.67 3873.6130000000003 2763.3019999999997 3604.332 2821.308 3337.924 2579.728 3108.203 2499.2380000000003 2847.705 2434.415 2637.909 2461.024 2404.0299999999997 2336.538 2223.145 2204.612 2031.449 2016.542 1858.859 1788.12 1814.411 1564.985 1770.991 1363.408 1932.545 1143.743 1991.0410000000002 916.722 2051.496 653.176 2010.629 475.23699999999997 2164.0280000000002 290.3589999999999 2323.409 174.76299999999992 2575.318 183.01600000000008 2819.273 190.93900000000008 3053.459 435.49300000000005 3201.7690000000002 517.767 3421.17 609.365 3665.435 516.887 3972.5370000000003 688.999 4168.581 870.778 4375.636 1164.5059999999999 4467.282999999999 1440 4471.638" fill="#38acfe"></path></g><defs><mask id="SvgjsMask1023"><rect width="1440" height="3000" fill="#ffffff"></rect></mask></defs></svg>